<svg id="Layer_1" data-name="Layer 1" xmlns="http://www.w3.org/2000/svg" viewBox="0 0 226.07 98.01"><defs><style>.cls-1{fill:#f6b88e;}.cls-2{fill:#9f1208;}.cls-3{fill:#f1b931;}.cls-4{fill:#0f0f0f;}</style></defs><title>yman preloader</title><polygon class="cls-1" points="209.43 56.17 211.22 75.76 226.07 74.5 222.65 54.79 209.43 56.17"/><path class="cls-1" d="M203.08,142.5s-5.18,7.31-5.6,9.75c0,0-9.48-10.55-7.16-17.29,0,0,.86,1.24,1-2.23,0,0,.22-7.6,9.73-9.66a5,5,0,0,1,1.51,1.64s1,.13.38-1.56c0,0,1.92-4.71,3.94-3.93,0,0,.72,1.54-.13,2.44,0,0,.94,3.15,2.79-.49,0,0,2.74-13,12.51-2.62,0,0,.34,3,3,3.94,0,0-6,18.08-10.29,20.21,0,0,.06,1.47-2.29-1.89C212.38,140.81,206.05,141.06,203.08,142.5Z" transform="translate(-39.36 -87.48)"/><path d="M205.4,119.48s5.25-11.12,11.71-9.19c0,0,9.23,3.92,10,7.78,0,0,1.81-1,1.45-1.76,0,0,3.91,3.92-.78,5.65a2.35,2.35,0,0,1-2.82.53,4.67,4.67,0,0,1-3-3.94s-9-10.41-12.51,2.62c0,0-1.71,3.59-2.79.49,0,0,.79-.58.13-2.44A1.18,1.18,0,0,0,205.4,119.48Z" transform="translate(-39.36 -87.48)"/><path class="cls-2" d="M77.37,143.25l3.89,11.45-27,8.32s-2.69,1.71-3.68-2.45l-1.67-6.12s-1.26-2.24,2.2-3Z" transform="translate(-39.36 -87.48)"/><path class="cls-2" d="M121.68,172.37l-2,11.24s-15.2-2.77-22.75-8.31c0,0-2.67-1.68-1.78-4.15l2.45-5.35s1.5-3.11,3.48-1.52C101.05,164.28,102.34,167,121.68,172.37Z" transform="translate(-39.36 -87.48)"/><path d="M77.37,143.25l47.45-12.72s12.19,3.17,2.43,11.32l-46,12.85Z" transform="translate(-39.36 -87.48)"/><path d="M121.68,172.37s12.35,3.47,9.14-5.2l-2.61-11.71,12.1.21s7.95,16.05,0,24.83a6.21,6.21,0,0,1-1.29,1.22c-2.64,1.67-11.35,6.36-19.41,1.89Z" transform="translate(-39.36 -87.48)"/><path d="M248.79,143.65l1.79,19.59A81.51,81.51,0,0,1,196.66,154s-20.42,26.46-48-.06c0,0-2-1.74-3.3-1.23,0,0-7.55-27.41-10.86-29.22,0,0,5.3-.28,4.93-2.14,0,0-6.62-34,23-27.09,0,0,11.17,4,18.74,8.86,0,0,12,1.73,12.38,11.16,0,0,2,9.26-4.8,13.35,0,0,.07,5.75,1.61,7.35,0,0-2.83,5.69,7.16,17.29,0,0,1-3.75,5.6-9.75a31.8,31.8,0,0,1,9.3-1.69s2.05,3.32,2.29,1.89l1.74-1.54A66.26,66.26,0,0,0,248.79,143.65Z" transform="translate(-39.36 -87.48)"/><polygon class="cls-1" points="102.46 44.82 121.93 40.84 124.6 52.74 105.93 58.33 102.46 44.82"/><path class="cls-2" d="M190.32,135s-1.51-.92-1.61-7.35c0,0,6.22-3.29,4.8-13.35,0,0,.56-8.26-12.38-11.16a109.62,109.62,0,0,0-18.74-8.86s-26.31-8.53-23.26,25c0,0-45.31,7.88-72.82,25.25,0,0,18.86-19.6,21.87-29.52,0,0-32.43,4.47-48.82,19.61,0,0,2-19.64,26.49-36.23,0,0,114.71-36.69,135.15,24.71a12.88,12.88,0,0,0-9.73,9.66Z" transform="translate(-39.36 -87.48)"/><path class="cls-3" d="M145.36,152.69a6.81,6.81,0,0,1-5.05,3L129.38,125.9s1-1.88,5.12-2.43C134.5,123.47,138.51,125.57,145.36,152.69Z" transform="translate(-39.36 -87.48)"/><path class="cls-2" d="M136.62,126.61l-6.1,2.17a5.65,5.65,0,0,0-1.14-2.88s-4.56.72-5.89,5l1.33-.36s11.62,3.15,2.43,11.32l-7.41,2.07s-.77,6.76,8.37,11.54c0,0,9.64,1.38,12.1.21,0,0-1.17-6.22-3.68-10l6.17-1.74-.78-2.62-6.23,1.77s-3.2-10.52-4.55-12.37l6.3-2Z" transform="translate(-39.36 -87.48)"/><path class="cls-4" d="M-184.52,284.37" transform="translate(-39.36 -87.48)"/></svg>