<svg id="Layer_1" data-name="Layer 1" xmlns="http://www.w3.org/2000/svg" viewBox="0 0 226.07 98.01"><defs><style>.cls-1{fill:#f6b88e;}.cls-2{fill:#9f1208;}.cls-3{fill:#f1b931;}.cls-4{fill:#0f0f0f;}.cls-5{fill:#e9e600;}</style></defs><title>yman</title><circle class="cls-1" cx="190.19" cy="27.69" r="0.72"/><circle class="cls-1" cx="190.37" cy="29.76" r="0.72"/><polygon class="cls-1" points="209.43 56.17 211.22 75.76 226.07 74.5 222.65 54.79 209.43 56.17"/><path class="cls-1" d="M203.08,142.5s-5.18,7.31-5.6,9.75c0,0-9.48-10.55-7.16-17.29,0,0,.86,1.24,1-2.23,0,0,.22-7.6,9.73-9.66a5,5,0,0,1,1.51,1.64s1,.13.38-1.56c0,0,1.92-4.71,3.94-3.93,0,0,.72,1.54-.13,2.44,0,0,.94,3.15,2.79-.49,0,0,2.74-13,12.51-2.62,0,0,.34,3,3,3.94,0,0-6,18.08-10.29,20.21,0,0,.06,1.47-2.29-1.89C212.38,140.81,206.05,141.06,203.08,142.5Z" transform="translate(-39.36 -87.48)"/><path class="cls-2" d="M77.37,143.25l3.89,11.45-27,8.32s-2.69,1.71-3.68-2.45l-1.67-6.12s-1.26-2.24,2.2-3Z" transform="translate(-39.36 -87.48)"/><path class="cls-2" d="M121.68,172.37l-2,11.24s-15.2-2.77-22.75-8.31c0,0-2.67-1.68-1.78-4.15l2.45-5.35s1.5-3.11,3.48-1.52C101.05,164.28,102.34,167,121.68,172.37Z" transform="translate(-39.36 -87.48)"/><path d="M77.37,143.25l47.45-12.72s12.19,3.17,2.43,11.32l-46,12.85Z" transform="translate(-39.36 -87.48)"/><path d="M121.68,172.37s12.35,3.47,9.14-5.2l-2.61-11.71,12.1.21s7.95,16.05,0,24.83a6.21,6.21,0,0,1-1.29,1.22c-2.64,1.67-11.35,6.36-19.41,1.89Z" transform="translate(-39.36 -87.48)"/><path d="M248.79,143.65l1.79,19.59A81.51,81.51,0,0,1,196.66,154s-20.42,26.46-48-.06c0,0-2-1.74-3.3-1.23,0,0-7.55-27.41-10.86-29.22,0,0,5.3-.28,4.93-2.14,0,0-6.62-34,23-27.09,0,0,11.17,4,18.74,8.86,0,0,12,1.73,12.38,11.16,0,0,2,9.26-4.8,13.35,0,0,.07,5.75,1.61,7.35,0,0-2.83,5.69,7.16,17.29,0,0,1-3.75,5.6-9.75a31.8,31.8,0,0,1,9.3-1.69s2.05,3.32,2.29,1.89l1.74-1.54A66.26,66.26,0,0,0,248.79,143.65Z" transform="translate(-39.36 -87.48)"/><polygon class="cls-1" points="102.46 44.82 121.93 40.84 124.6 52.74 105.93 58.33 102.46 44.82"/><path class="cls-2" d="M190.32,135s-1.51-.92-1.61-7.35c0,0,6.22-3.29,4.8-13.35,0,0,.56-8.26-12.38-11.16a109.62,109.62,0,0,0-18.74-8.86s-26.31-8.53-23.26,25c0,0-45.31,7.88-72.82,25.25,0,0,18.86-19.6,21.87-29.52,0,0-32.43,4.47-48.82,19.61,0,0,2-19.64,26.49-36.23,0,0,114.71-36.69,135.15,24.71a12.88,12.88,0,0,0-9.73,9.66Z" transform="translate(-39.36 -87.48)"/><path class="cls-3" d="M145.36,152.69a6.81,6.81,0,0,1-5.05,3L129.38,125.9s1-1.88,5.12-2.43C134.5,123.47,138.51,125.57,145.36,152.69Z" transform="translate(-39.36 -87.48)"/><path class="cls-2" d="M136.62,126.61l-6.1,2.17a5.65,5.65,0,0,0-1.14-2.88s-4.56.72-5.89,5l1.33-.36s11.62,3.15,2.43,11.32l-7.41,2.07s-.77,6.76,8.37,11.54c0,0,9.64,1.38,12.1.21,0,0-1.17-6.22-3.68-10l6.17-1.74-.78-2.62-6.23,1.77s-3.2-10.52-4.55-12.37l6.3-2Z" transform="translate(-39.36 -87.48)"/><path d="M201.58,127.11c-.07,5.56,2.22,13,7.53,15.76,6.6,3.39,11.89-4.71,14.4-9.67,2.93-5.79,2.72-13.12-4.45-15.46-6.72-2.19-14.3,3.09-13.18,10.38,1.15,7.49,10.5,7.19,14.67,2.46,4-4.48,5.6-12.84-1.45-15.36-5-1.78-12.15.23-14.74,5.08-3.26,6.09.7,13.45,6.38,16.29,6.89,3.45,13-6.9,6.06-10.36-.42-.21-.89-.62-1.31-.78-.66-.25.07-2.21-.81.3-.66,1.91-.07.54,1.23,1l-2.64-1.54.45.55-1.54-2.65c.37-2.06.23-2.31-.43-.77q1.38-.34-.24-.06h3.19l.23.27,2.76,3.59.18.49-1.54,2.65c.71-.85-2-3.5-3-2.47a13.4,13.4,0,0,0-1.3,2.34,16.84,16.84,0,0,1-3.3,4.06l2.64-1.54-.79.2,4.62.6c.39.48.34.4-.16-.24a16.67,16.67,0,0,1-.85-1.48,8.41,8.41,0,0,1-.58-3.68c.1-7.72-11.9-7.72-12,0Z" transform="translate(-39.36 -87.48)"/><path class="cls-1" d="M220.34,138.36a9,9,0,0,1-4.47-3.12s.81,4.23,2.52,5.13C218.39,140.37,218.78,140.85,220.34,138.36Z" transform="translate(-39.36 -87.48)"/><path class="cls-1" d="M219.35,138l2.61-2.51.25.1a23.3,23.3,0,0,1-1.87,2.77c-.42.35-1-.36-1-.36" transform="translate(-39.36 -87.48)"/><path class="cls-4" d="M-184.52,284.37" transform="translate(-39.36 -87.48)"/><circle class="cls-1" cx="184.67" cy="40.07" r="0.49"/><circle class="cls-1" cx="183.95" cy="38.4" r="0.49"/><circle class="cls-1" cx="183.2" cy="36.86" r="0.49"/><path class="cls-1" d="M224.07,132s-.88.3-.49,1.06A5.21,5.21,0,0,0,224.07,132Z" transform="translate(-39.36 -87.48)"/><path class="cls-1" d="M224.61,130.47a.87.87,0,0,0-.4,1.18A3.55,3.55,0,0,0,224.61,130.47Z" transform="translate(-39.36 -87.48)"/><path class="cls-1" d="M225,128.76a.85.85,0,0,0-.27,1.2A3.57,3.57,0,0,0,225,128.76Z" transform="translate(-39.36 -87.48)"/><path class="cls-5" d="M174.84,165.68s-.13-13.68,13.34-4.37h0s-6.77,4.12-13.34,4.37" transform="translate(-39.36 -87.48)"/></svg>